<?xml version="1.0" encoding="UTF-8" standalone="no"?>
<!-- Created with Inkscape (http://www.inkscape.org/) -->

<svg
   xmlns:dc="http://purl.org/dc/elements/1.1/"
   xmlns:cc="http://creativecommons.org/ns#"
   xmlns:rdf="http://www.w3.org/1999/02/22-rdf-syntax-ns#"
   xmlns:svg="http://www.w3.org/2000/svg"
   xmlns="http://www.w3.org/2000/svg"
   xmlns:sodipodi="http://sodipodi.sourceforge.net/DTD/sodipodi-0.dtd"
   xmlns:inkscape="http://www.inkscape.org/namespaces/inkscape"
   width="292.83255"
   height="111.86948"
   id="svg2"
   version="1.1"
   inkscape:version="0.48.4 r9939"
   sodipodi:docname="inverse-limit-gamma-on-2.svg">
  <sodipodi:namedview
     id="base"
     pagecolor="#ffffff"
     bordercolor="#666666"
     borderopacity="1.0"
     inkscape:pageopacity="0.0"
     inkscape:pageshadow="2"
     inkscape:zoom="2.8"
     inkscape:cx="123.97521"
     inkscape:cy="39.81462"
     inkscape:document-units="px"
     inkscape:current-layer="layer1"
     showgrid="false"
     inkscape:window-width="1215"
     inkscape:window-height="1000"
     inkscape:window-x="65"
     inkscape:window-y="24"
     inkscape:window-maximized="1"
     fit-margin-top="5"
     fit-margin-left="5"
     fit-margin-right="5"
     fit-margin-bottom="5" />
  <defs
     id="defs4">
    <marker
       style="overflow:visible"
       id="Arrow1Mend"
       refX="0"
       refY="0"
       orient="auto"
       inkscape:stockid="Arrow1Mend">
      <path
         transform="matrix(-0.4,0,0,-0.4,-4,0)"
         style="fill-rule:evenodd;stroke:#000000;stroke-width:1pt"
         d="M 0,0 5,-5 -12.5,0 5,5 0,0 z"
         id="path4593"
         inkscape:connector-curvature="0" />
    </marker>
    <marker
       style="overflow:visible"
       id="Arrow1Mstart"
       refX="0"
       refY="0"
       orient="auto"
       inkscape:stockid="Arrow1Mstart">
      <path
         transform="matrix(0.4,0,0,0.4,4,0)"
         style="fill-rule:evenodd;stroke:#000000;stroke-width:1pt"
         d="M 0,0 5,-5 -12.5,0 5,5 0,0 z"
         id="path4590"
         inkscape:connector-curvature="0" />
    </marker>
    <marker
       style="overflow:visible"
       id="Arrow1Lend"
       refX="0"
       refY="0"
       orient="auto"
       inkscape:stockid="Arrow1Lend">
      <path
         transform="matrix(-0.8,0,0,-0.8,-10,0)"
         style="fill-rule:evenodd;stroke:#000000;stroke-width:1pt"
         d="M 0,0 5,-5 -12.5,0 5,5 0,0 z"
         id="path4587"
         inkscape:connector-curvature="0" />
    </marker>
    <marker
       style="overflow:visible"
       id="Arrow1Mendg"
       refX="0"
       refY="0"
       orient="auto"
       inkscape:stockid="Arrow1Mendg">
      <path
         transform="matrix(-0.4,0,0,-0.4,-4,0)"
         style="fill:#008000;fill-rule:evenodd;stroke:#008000;stroke-width:1pt"
         d="M 0,0 5,-5 -12.5,0 5,5 0,0 z"
         id="path5783"
         inkscape:connector-curvature="0" />
    </marker>
  </defs>
  <metadata
     id="metadata7">
    <rdf:RDF>
      <cc:Work
         rdf:about="">
        <dc:format>image/svg+xml</dc:format>
        <dc:type
           rdf:resource="http://purl.org/dc/dcmitype/StillImage" />
        <dc:title></dc:title>
      </cc:Work>
    </rdf:RDF>
  </metadata>
  <g
     transform="translate(-275.82746,-386.68985)"
     id="layer1"
     inkscape:groupmode="layer"
     inkscape:label="Layer 1">
    <path
       sodipodi:nodetypes="cc"
       inkscape:connector-curvature="0"
       id="path5876"
       d="m 394.464,416.98364 c -2.30047,-8.54643 -42.7596,-13.84203 -59.76362,0.35714"
       style="fill:#ffffff;fill-opacity:0;stroke:#008000;stroke-width:1px;stroke-linecap:butt;stroke-linejoin:miter;stroke-opacity:1;marker-mid:none;marker-end:url(#Arrow1Mendg)" />
    <text
       xml:space="preserve"
       style="font-size:12px;font-style:normal;font-variant:normal;font-weight:normal;font-stretch:normal;text-align:start;line-height:125%;letter-spacing:0px;word-spacing:0px;writing-mode:lr-tb;text-anchor:start;fill:#000000;fill-opacity:1;stroke:none;font-family:TG Pagella Math;-inkscape-font-specification:TG Pagella Math"
       x="413.75839"
       y="397.47385"
       id="text5878"
       sodipodi:linespacing="125%"><tspan
         sodipodi:role="line"
         id="tspan5880"
         x="413.75839"
         y="397.47385"
         style="fill:#008000">γ</tspan></text>
    <path
       inkscape:connector-curvature="0"
       id="path3781"
       d="m 281.32746,456.19891 47.47717,0"
       style="fill:none;stroke:#000080;stroke-width:1;stroke-linecap:butt;stroke-linejoin:miter;stroke-miterlimit:4;stroke-opacity:1;stroke-dasharray:1, 3;stroke-dashoffset:0" />
    <text
       transform="translate(94.01018,413.83849)"
       sodipodi:linespacing="125%"
       id="text4544"
       y="84.363701"
       x="65"
       style="font-size:12px;font-style:normal;font-weight:normal;line-height:125%;letter-spacing:0px;word-spacing:0px;fill:#000000;fill-opacity:1;stroke:none;font-family:Sans"
       xml:space="preserve"><tspan
         y="84.363701"
         x="65"
         id="tspan4546"
         sodipodi:role="line" /></text>
    <path
       sodipodi:nodetypes="cc"
       inkscape:connector-curvature="0"
       id="path4578"
       d="m 454.55592,416.98364 c -2.30047,-8.54643 -55.89158,-13.84203 -72.8956,0.35714"
       style="fill:#ffffff;fill-opacity:0;stroke:#008000;stroke-width:1px;stroke-linecap:butt;stroke-linejoin:miter;stroke-opacity:1;marker-mid:none;marker-end:url(#Arrow1Mendg)" />
    <path
       style="fill:#ffffff;fill-opacity:0;stroke:#008000;stroke-width:1px;stroke-linecap:butt;stroke-linejoin:miter;stroke-opacity:1;marker-mid:none;marker-end:url(#Arrow1Mendg)"
       d="m 485.87672,416.98364 c -2.30047,-8.54643 -42.7596,-13.84203 -59.76362,0.35714"
       id="path5868"
       inkscape:connector-curvature="0"
       sodipodi:nodetypes="cc" />
    <path
       style="fill:none;stroke:#000080;stroke-width:1;stroke-linecap:butt;stroke-linejoin:miter;stroke-miterlimit:4;stroke-opacity:1;stroke-dasharray:1, 3;stroke-dashoffset:0"
       d="m 515.68285,456.19891 47.47717,0"
       id="path6063"
       inkscape:connector-curvature="0" />
    <path
       inkscape:connector-curvature="0"
       id="path6343"
       d="m 433.86049,456.19891 10.10152,0"
       style="fill:none;stroke:#000080;stroke-width:1;stroke-linecap:butt;stroke-linejoin:miter;stroke-miterlimit:4;stroke-opacity:1;stroke-dasharray:1, 3;stroke-dashoffset:0"
       sodipodi:nodetypes="cc" />
    <path
       sodipodi:type="arc"
       style="fill:#0000ff;fill-opacity:1;stroke:#000080;stroke-width:1;stroke-linecap:round;stroke-miterlimit:4;stroke-opacity:1;stroke-dasharray:none;stroke-dashoffset:0"
       id="path7324"
       sodipodi:cx="57.578693"
       sodipodi:cy="34.592808"
       sodipodi:rx="3.5355339"
       sodipodi:ry="3.5355339"
       d="m 61.114227,34.592808 c 0,1.952621 -1.582912,3.535534 -3.535534,3.535534 -1.952621,0 -3.535534,-1.582913 -3.535534,-3.535534 0,-1.952622 1.582913,-3.535534 3.535534,-3.535534 1.952622,0 3.535534,1.582912 3.535534,3.535534 z"
       transform="translate(276.83761,386.68985)" />
    <path
       style="fill:none;stroke:#000080;stroke-width:1px;stroke-linecap:butt;stroke-linejoin:miter;stroke-opacity:1"
       d="m 362.79174,421.28266 35.17858,0"
       id="path7326"
       inkscape:connector-curvature="0" />
    <path
       inkscape:connector-curvature="0"
       id="path7328"
       d="m 362.79174,491.46123 35.17858,0"
       style="fill:none;stroke:#000080;stroke-width:1px;stroke-linecap:butt;stroke-linejoin:miter;stroke-opacity:1" />
    <path
       transform="translate(276.83761,456.86842)"
       d="m 61.114227,34.592808 c 0,1.952621 -1.582912,3.535534 -3.535534,3.535534 -1.952621,0 -3.535534,-1.582913 -3.535534,-3.535534 0,-1.952622 1.582913,-3.535534 3.535534,-3.535534 1.952622,0 3.535534,1.582912 3.535534,3.535534 z"
       sodipodi:ry="3.5355339"
       sodipodi:rx="3.5355339"
       sodipodi:cy="34.592808"
       sodipodi:cx="57.578693"
       id="path7330"
       style="fill:#0000ff;fill-opacity:1;stroke:#000080;stroke-width:1;stroke-linecap:round;stroke-miterlimit:4;stroke-opacity:1;stroke-dasharray:none;stroke-dashoffset:0"
       sodipodi:type="arc" />
    <path
       transform="translate(363.44475,386.68985)"
       d="m 61.114227,34.592808 c 0,1.952621 -1.582912,3.535534 -3.535534,3.535534 -1.952621,0 -3.535534,-1.582913 -3.535534,-3.535534 0,-1.952622 1.582913,-3.535534 3.535534,-3.535534 1.952622,0 3.535534,1.582912 3.535534,3.535534 z"
       sodipodi:ry="3.5355339"
       sodipodi:rx="3.5355339"
       sodipodi:cy="34.592808"
       sodipodi:cx="57.578693"
       id="path7332"
       style="fill:#0000ff;fill-opacity:1;stroke:#000080;stroke-width:1;stroke-linecap:round;stroke-miterlimit:4;stroke-opacity:1;stroke-dasharray:none;stroke-dashoffset:0"
       sodipodi:type="arc" />
    <path
       sodipodi:type="arc"
       style="fill:#0000ff;fill-opacity:1;stroke:#000080;stroke-width:1;stroke-linecap:round;stroke-miterlimit:4;stroke-opacity:1;stroke-dasharray:none;stroke-dashoffset:0"
       id="path7334"
       sodipodi:cx="57.578693"
       sodipodi:cy="34.592808"
       sodipodi:rx="3.5355339"
       sodipodi:ry="3.5355339"
       d="m 61.114227,34.592808 c 0,1.952621 -1.582912,3.535534 -3.535534,3.535534 -1.952621,0 -3.535534,-1.582913 -3.535534,-3.535534 0,-1.952622 1.582913,-3.535534 3.535534,-3.535534 1.952622,0 3.535534,1.582912 3.535534,3.535534 z"
       transform="translate(368.08761,386.68985)" />
    <path
       transform="translate(372.37332,386.68985)"
       d="m 61.114227,34.592808 c 0,1.952621 -1.582912,3.535534 -3.535534,3.535534 -1.952621,0 -3.535534,-1.582913 -3.535534,-3.535534 0,-1.952622 1.582913,-3.535534 3.535534,-3.535534 1.952622,0 3.535534,1.582912 3.535534,3.535534 z"
       sodipodi:ry="3.5355339"
       sodipodi:rx="3.5355339"
       sodipodi:cy="34.592808"
       sodipodi:cx="57.578693"
       id="path7336"
       style="fill:#0000ff;fill-opacity:1;stroke:#000080;stroke-width:1;stroke-linecap:round;stroke-miterlimit:4;stroke-opacity:1;stroke-dasharray:none;stroke-dashoffset:0"
       sodipodi:type="arc" />
    <path
       sodipodi:type="arc"
       style="fill:#0000ff;fill-opacity:1;stroke:#000080;stroke-width:1;stroke-linecap:round;stroke-miterlimit:4;stroke-opacity:1;stroke-dasharray:none;stroke-dashoffset:0"
       id="path7338"
       sodipodi:cx="57.578693"
       sodipodi:cy="34.592808"
       sodipodi:rx="3.5355339"
       sodipodi:ry="3.5355339"
       d="m 61.114227,34.592808 c 0,1.952621 -1.582912,3.535534 -3.535534,3.535534 -1.952621,0 -3.535534,-1.582913 -3.535534,-3.535534 0,-1.952622 1.582913,-3.535534 3.535534,-3.535534 1.952622,0 3.535534,1.582912 3.535534,3.535534 z"
       transform="translate(363.44475,456.86842)" />
    <path
       sodipodi:type="arc"
       style="fill:#0000ff;fill-opacity:1;stroke:#000080;stroke-width:1;stroke-linecap:round;stroke-miterlimit:4;stroke-opacity:1;stroke-dasharray:none;stroke-dashoffset:0"
       id="path7342"
       sodipodi:cx="57.578693"
       sodipodi:cy="34.592808"
       sodipodi:rx="3.5355339"
       sodipodi:ry="3.5355339"
       d="m 61.114227,34.592808 c 0,1.952621 -1.582912,3.535534 -3.535534,3.535534 -1.952621,0 -3.535534,-1.582913 -3.535534,-3.535534 0,-1.952622 1.582913,-3.535534 3.535534,-3.535534 1.952622,0 3.535534,1.582912 3.535534,3.535534 z"
       transform="translate(372.37332,456.86842)" />
    <path
       sodipodi:type="arc"
       style="fill:#0000ff;fill-opacity:1;stroke:#000080;stroke-width:1;stroke-linecap:round;stroke-miterlimit:4;stroke-opacity:1;stroke-dasharray:none;stroke-dashoffset:0"
       id="path7344"
       sodipodi:cx="57.578693"
       sodipodi:cy="34.592808"
       sodipodi:rx="3.5355339"
       sodipodi:ry="3.5355339"
       d="m 61.114227,34.592808 c 0,1.952621 -1.582912,3.535534 -3.535534,3.535534 -1.952621,0 -3.535534,-1.582913 -3.535534,-3.535534 0,-1.952622 1.582913,-3.535534 3.535534,-3.535534 1.952622,0 3.535534,1.582912 3.535534,3.535534 z"
       transform="translate(389.15903,386.68985)" />
    <path
       transform="translate(393.44474,386.68985)"
       d="m 61.114227,34.592808 c 0,1.952621 -1.582912,3.535534 -3.535534,3.535534 -1.952621,0 -3.535534,-1.582913 -3.535534,-3.535534 0,-1.952622 1.582913,-3.535534 3.535534,-3.535534 1.952622,0 3.535534,1.582912 3.535534,3.535534 z"
       sodipodi:ry="3.5355339"
       sodipodi:rx="3.5355339"
       sodipodi:cy="34.592808"
       sodipodi:cx="57.578693"
       id="path7348"
       style="fill:#0000ff;fill-opacity:1;stroke:#000080;stroke-width:1;stroke-linecap:round;stroke-miterlimit:4;stroke-opacity:1;stroke-dasharray:none;stroke-dashoffset:0"
       sodipodi:type="arc" />
    <path
       sodipodi:type="arc"
       style="fill:#0000ff;fill-opacity:1;stroke:#000080;stroke-width:1;stroke-linecap:round;stroke-miterlimit:4;stroke-opacity:1;stroke-dasharray:none;stroke-dashoffset:0"
       id="path7350"
       sodipodi:cx="57.578693"
       sodipodi:cy="34.592808"
       sodipodi:rx="3.5355339"
       sodipodi:ry="3.5355339"
       d="m 61.114227,34.592808 c 0,1.952621 -1.582912,3.535534 -3.535534,3.535534 -1.952621,0 -3.535534,-1.582913 -3.535534,-3.535534 0,-1.952622 1.582913,-3.535534 3.535534,-3.535534 1.952622,0 3.535534,1.582912 3.535534,3.535534 z"
       transform="translate(399.3376,386.68985)" />
    <path
       transform="translate(430.94474,386.68985)"
       d="m 61.114227,34.592808 c 0,1.952621 -1.582912,3.535534 -3.535534,3.535534 -1.952621,0 -3.535534,-1.582913 -3.535534,-3.535534 0,-1.952622 1.582913,-3.535534 3.535534,-3.535534 1.952622,0 3.535534,1.582912 3.535534,3.535534 z"
       sodipodi:ry="3.5355339"
       sodipodi:rx="3.5355339"
       sodipodi:cy="34.592808"
       sodipodi:cx="57.578693"
       id="path7352"
       style="fill:#0000ff;fill-opacity:1;stroke:#000080;stroke-width:1;stroke-linecap:round;stroke-miterlimit:4;stroke-opacity:1;stroke-dasharray:none;stroke-dashoffset:0"
       sodipodi:type="arc" />
    <path
       transform="translate(389.15903,456.86842)"
       d="m 61.114227,34.592808 c 0,1.952621 -1.582912,3.535534 -3.535534,3.535534 -1.952621,0 -3.535534,-1.582913 -3.535534,-3.535534 0,-1.952622 1.582913,-3.535534 3.535534,-3.535534 1.952622,0 3.535534,1.582912 3.535534,3.535534 z"
       sodipodi:ry="3.5355339"
       sodipodi:rx="3.5355339"
       sodipodi:cy="34.592808"
       sodipodi:cx="57.578693"
       id="path7354"
       style="fill:#0000ff;fill-opacity:1;stroke:#000080;stroke-width:1;stroke-linecap:round;stroke-miterlimit:4;stroke-opacity:1;stroke-dasharray:none;stroke-dashoffset:0"
       sodipodi:type="arc" />
    <path
       sodipodi:type="arc"
       style="fill:#0000ff;fill-opacity:1;stroke:#000080;stroke-width:1;stroke-linecap:round;stroke-miterlimit:4;stroke-opacity:1;stroke-dasharray:none;stroke-dashoffset:0"
       id="path7356"
       sodipodi:cx="57.578693"
       sodipodi:cy="34.592808"
       sodipodi:rx="3.5355339"
       sodipodi:ry="3.5355339"
       d="m 61.114227,34.592808 c 0,1.952621 -1.582912,3.535534 -3.535534,3.535534 -1.952621,0 -3.535534,-1.582913 -3.535534,-3.535534 0,-1.952622 1.582913,-3.535534 3.535534,-3.535534 1.952622,0 3.535534,1.582912 3.535534,3.535534 z"
       transform="translate(393.44474,456.86842)" />
    <path
       transform="translate(399.3376,456.86842)"
       d="m 61.114227,34.592808 c 0,1.952621 -1.582912,3.535534 -3.535534,3.535534 -1.952621,0 -3.535534,-1.582913 -3.535534,-3.535534 0,-1.952622 1.582913,-3.535534 3.535534,-3.535534 1.952622,0 3.535534,1.582912 3.535534,3.535534 z"
       sodipodi:ry="3.5355339"
       sodipodi:rx="3.5355339"
       sodipodi:cy="34.592808"
       sodipodi:cx="57.578693"
       id="path7358"
       style="fill:#0000ff;fill-opacity:1;stroke:#000080;stroke-width:1;stroke-linecap:round;stroke-miterlimit:4;stroke-opacity:1;stroke-dasharray:none;stroke-dashoffset:0"
       sodipodi:type="arc" />
    <path
       sodipodi:type="arc"
       style="fill:#0000ff;fill-opacity:1;stroke:#000080;stroke-width:1;stroke-linecap:round;stroke-miterlimit:4;stroke-opacity:1;stroke-dasharray:none;stroke-dashoffset:0"
       id="path7360"
       sodipodi:cx="57.578693"
       sodipodi:cy="34.592808"
       sodipodi:rx="3.5355339"
       sodipodi:ry="3.5355339"
       d="m 61.114227,34.592808 c 0,1.952621 -1.582912,3.535534 -3.535534,3.535534 -1.952621,0 -3.535534,-1.582913 -3.535534,-3.535534 0,-1.952622 1.582913,-3.535534 3.535534,-3.535534 1.952622,0 3.535534,1.582912 3.535534,3.535534 z"
       transform="translate(430.94474,456.86842)" />
    <path
       style="fill:none;stroke:#800080;stroke-width:2;stroke-linecap:round;stroke-linejoin:miter;stroke-opacity:1;stroke-miterlimit:4;stroke-dasharray:none"
       d="M 44.642857,34.72662 105.35714,34.369477"
       id="path7362"
       inkscape:connector-curvature="0"
       transform="translate(275.82746,386.68985)" />
    <path
       transform="translate(323.44475,386.68985)"
       d="m 61.114227,34.592808 c 0,1.952621 -1.582912,3.535534 -3.535534,3.535534 -1.952621,0 -3.535534,-1.582913 -3.535534,-3.535534 0,-1.952622 1.582913,-3.535534 3.535534,-3.535534 1.952622,0 3.535534,1.582912 3.535534,3.535534 z"
       sodipodi:ry="3.5355339"
       sodipodi:rx="3.5355339"
       sodipodi:cy="34.592808"
       sodipodi:cx="57.578693"
       id="path7896"
       style="fill:#ff00ff;fill-opacity:1;stroke:#800080;stroke-width:1;stroke-linecap:round;stroke-miterlimit:4;stroke-opacity:1;stroke-dasharray:none;stroke-dashoffset:0"
       sodipodi:type="arc" />
    <path
       sodipodi:type="arc"
       style="fill:none;fill-opacity:1;stroke:#800080;stroke-width:1;stroke-linecap:round;stroke-miterlimit:4;stroke-opacity:1;stroke-dasharray:none;stroke-dashoffset:0"
       id="path7898"
       sodipodi:cx="57.578693"
       sodipodi:cy="34.592808"
       sodipodi:rx="3.5355339"
       sodipodi:ry="3.5355339"
       d="m 61.114227,34.592808 c 0,1.952621 -1.582912,3.535534 -3.535534,3.535534 -1.952621,0 -3.535534,-1.582913 -3.535534,-3.535534 0,-1.952622 1.582913,-3.535534 3.535534,-3.535534 1.952622,0 3.535534,1.582912 3.535534,3.535534 z"
       transform="translate(323.44475,457.04699)" />
    <path
       style="fill:none;stroke:#800080;stroke-width:2;stroke-linecap:round;stroke-linejoin:miter;stroke-opacity:1;stroke-miterlimit:4;stroke-dasharray:none"
       d="m 108.57143,104.72662 129.28571,0"
       id="path7900"
       inkscape:connector-curvature="0"
       transform="translate(275.82746,386.68985)" />
    <path
       sodipodi:type="arc"
       style="fill:#ff7f2a;fill-opacity:1;stroke:#aa4400;stroke-width:1;stroke-linecap:round;stroke-miterlimit:4;stroke-opacity:1;stroke-dasharray:none;stroke-dashoffset:0"
       id="path8044"
       sodipodi:cx="57.578693"
       sodipodi:cy="34.592808"
       sodipodi:rx="3.5355339"
       sodipodi:ry="3.5355339"
       d="m 61.114227,34.592808 a 3.5355339,3.5355339 0 1 1 -7.071068,0 3.5355339,3.5355339 0 1 1 7.071068,0 z"
       transform="translate(310.56531,386.68985)" />
    <path
       transform="translate(368.08761,456.86842)"
       d="m 61.114227,34.592808 a 3.5355339,3.5355339 0 1 1 -7.071068,0 3.5355339,3.5355339 0 1 1 7.071068,0 z"
       sodipodi:ry="3.5355339"
       sodipodi:rx="3.5355339"
       sodipodi:cy="34.592808"
       sodipodi:cx="57.578693"
       id="path7340"
       style="fill:#ff6600;fill-opacity:1;stroke:#803300;stroke-width:1;stroke-linecap:round;stroke-miterlimit:4;stroke-opacity:1;stroke-dasharray:none;stroke-dashoffset:0"
       sodipodi:type="arc" />
  </g>
</svg>
