<?xml version="1.0" encoding="UTF-8" standalone="no"?>
<!-- Created with Inkscape (http://www.inkscape.org/) -->

<svg
   xmlns:dc="http://purl.org/dc/elements/1.1/"
   xmlns:cc="http://creativecommons.org/ns#"
   xmlns:rdf="http://www.w3.org/1999/02/22-rdf-syntax-ns#"
   xmlns:svg="http://www.w3.org/2000/svg"
   xmlns="http://www.w3.org/2000/svg"
   xmlns:sodipodi="http://sodipodi.sourceforge.net/DTD/sodipodi-0.dtd"
   xmlns:inkscape="http://www.inkscape.org/namespaces/inkscape"
   width="240.29443"
   height="84.72084"
   id="svg2"
   version="1.1"
   inkscape:version="0.48.4 r9939"
   sodipodi:docname="omega-product.svg">
  <defs
     id="defs4" />
  <sodipodi:namedview
     id="base"
     pagecolor="#ffffff"
     bordercolor="#666666"
     borderopacity="1.0"
     inkscape:pageopacity="0.0"
     inkscape:pageshadow="2"
     inkscape:zoom="2.8"
     inkscape:cx="113.82027"
     inkscape:cy="26.8063"
     inkscape:document-units="px"
     inkscape:current-layer="layer1"
     showgrid="false"
     inkscape:window-width="1215"
     inkscape:window-height="1000"
     inkscape:window-x="65"
     inkscape:window-y="24"
     inkscape:window-maximized="1"
     fit-margin-top="5"
     fit-margin-left="5"
     fit-margin-right="5"
     fit-margin-bottom="5" />
  <metadata
     id="metadata7">
    <rdf:RDF>
      <cc:Work
         rdf:about="">
        <dc:format>image/svg+xml</dc:format>
        <dc:type
           rdf:resource="http://purl.org/dc/dcmitype/StillImage" />
        <dc:title></dc:title>
      </cc:Work>
    </rdf:RDF>
  </metadata>
  <g
     inkscape:label="Layer 1"
     inkscape:groupmode="layer"
     id="layer1"
     transform="translate(-94.01018,-413.83849)">
    <path
       style="fill:none;stroke:#000080;stroke-width:1;stroke-linecap:butt;stroke-linejoin:miter;stroke-miterlimit:4;stroke-opacity:1;stroke-dasharray:1, 3;stroke-dashoffset:0"
       d="m 281.32746,456.19891 47.47717,0"
       id="path3781"
       inkscape:connector-curvature="0" />
    <path
       style="fill:none;stroke:#000080;stroke-width:3;stroke-linecap:butt;stroke-linejoin:miter;stroke-miterlimit:4;stroke-opacity:1;stroke-dasharray:none"
       d="m 100.0711,420.33849 c 0,71.72083 0,71.72083 0,71.72083"
       id="path3765"
       inkscape:connector-curvature="0" />
    <path
       sodipodi:type="arc"
       style="fill:#400040;fill-opacity:1;stroke:#800080;stroke-width:1;stroke-miterlimit:4;stroke-opacity:1;stroke-dasharray:none;stroke-dashoffset:0"
       id="path3821"
       sodipodi:cx="6.0609155"
       sodipodi:cy="34.213215"
       sodipodi:rx="3.5355339"
       sodipodi:ry="3.5355339"
       d="m 9.5964494,34.213215 a 3.5355339,3.5355339 0 1 1 -7.0710678,0 3.5355339,3.5355339 0 1 1 7.0710678,0 z"
       transform="translate(94.01018,413.83849)" />
    <path
       inkscape:connector-curvature="0"
       id="path3823"
       d="m 130.86975,420.33849 c 0,71.72083 0,71.72083 0,71.72083"
       style="fill:none;stroke:#000080;stroke-width:3;stroke-linecap:butt;stroke-linejoin:miter;stroke-miterlimit:4;stroke-opacity:1;stroke-dasharray:none" />
    <path
       transform="translate(124.80883,438.48135)"
       d="m 9.5964494,34.213215 a 3.5355339,3.5355339 0 1 1 -7.0710678,0 3.5355339,3.5355339 0 1 1 7.0710678,0 z"
       sodipodi:ry="3.5355339"
       sodipodi:rx="3.5355339"
       sodipodi:cy="34.213215"
       sodipodi:cx="6.0609155"
       id="path3825"
       style="fill:#400040;fill-opacity:1;stroke:#800080;stroke-width:1;stroke-miterlimit:4;stroke-opacity:1;stroke-dasharray:none;stroke-dashoffset:0"
       sodipodi:type="arc" />
    <path
       style="fill:none;stroke:#000080;stroke-width:3;stroke-linecap:butt;stroke-linejoin:miter;stroke-miterlimit:4;stroke-opacity:1;stroke-dasharray:none"
       d="m 161.66839,420.33849 c 0,71.72083 0,71.72083 0,71.72083"
       id="path3827"
       inkscape:connector-curvature="0" />
    <path
       sodipodi:type="arc"
       style="fill:#400040;fill-opacity:1;stroke:#800080;stroke-width:1;stroke-miterlimit:4;stroke-opacity:1;stroke-dasharray:none;stroke-dashoffset:0"
       id="path3829"
       sodipodi:cx="6.0609155"
       sodipodi:cy="34.213215"
       sodipodi:rx="3.5355339"
       sodipodi:ry="3.5355339"
       d="m 9.5964494,34.213215 a 3.5355339,3.5355339 0 1 1 -7.0710678,0 3.5355339,3.5355339 0 1 1 7.0710678,0 z"
       transform="translate(155.60747,399.55278)" />
    <path
       inkscape:connector-curvature="0"
       id="path3831"
       d="m 192.46704,420.33849 c 0,71.72083 0,71.72083 0,71.72083"
       style="fill:none;stroke:#000080;stroke-width:3;stroke-linecap:butt;stroke-linejoin:miter;stroke-miterlimit:4;stroke-opacity:1;stroke-dasharray:none" />
    <path
       transform="translate(186.40612,434.90992)"
       d="m 9.5964494,34.213215 a 3.5355339,3.5355339 0 1 1 -7.0710678,0 3.5355339,3.5355339 0 1 1 7.0710678,0 z"
       sodipodi:ry="3.5355339"
       sodipodi:rx="3.5355339"
       sodipodi:cy="34.213215"
       sodipodi:cx="6.0609155"
       id="path3833"
       style="fill:#400040;fill-opacity:1;stroke:#800080;stroke-width:1;stroke-miterlimit:4;stroke-opacity:1;stroke-dasharray:none;stroke-dashoffset:0"
       sodipodi:type="arc" />
    <path
       style="fill:none;stroke:#000080;stroke-width:3;stroke-linecap:butt;stroke-linejoin:miter;stroke-miterlimit:4;stroke-opacity:1;stroke-dasharray:none"
       d="m 223.26568,420.33849 c 0,71.72083 0,71.72083 0,71.72083"
       id="path3835"
       inkscape:connector-curvature="0" />
    <path
       sodipodi:type="arc"
       style="fill:#400040;fill-opacity:1;stroke:#800080;stroke-width:1;stroke-miterlimit:4;stroke-opacity:1;stroke-dasharray:none;stroke-dashoffset:0"
       id="path3837"
       sodipodi:cx="6.0609155"
       sodipodi:cy="34.213215"
       sodipodi:rx="3.5355339"
       sodipodi:ry="3.5355339"
       d="m 9.5964494,34.213215 a 3.5355339,3.5355339 0 1 1 -7.0710678,0 3.5355339,3.5355339 0 1 1 7.0710678,0 z"
       transform="translate(217.20476,422.76706)" />
    <path
       inkscape:connector-curvature="0"
       id="path3839"
       d="m 254.06433,420.33849 c 0,71.72083 0,71.72083 0,71.72083"
       style="fill:none;stroke:#000080;stroke-width:3;stroke-linecap:butt;stroke-linejoin:miter;stroke-miterlimit:4;stroke-opacity:1;stroke-dasharray:none" />
    <path
       transform="translate(248.00341,402.05278)"
       d="m 9.5964494,34.213215 a 3.5355339,3.5355339 0 1 1 -7.0710678,0 3.5355339,3.5355339 0 1 1 7.0710678,0 z"
       sodipodi:ry="3.5355339"
       sodipodi:rx="3.5355339"
       sodipodi:cy="34.213215"
       sodipodi:cx="6.0609155"
       id="path3841"
       style="fill:#400040;fill-opacity:1;stroke:#800080;stroke-width:1;stroke-miterlimit:4;stroke-opacity:1;stroke-dasharray:none;stroke-dashoffset:0"
       sodipodi:type="arc" />
    <path
       style="fill:none;stroke:#000000;stroke-width:1px;stroke-linecap:butt;stroke-linejoin:miter;stroke-opacity:1"
       d="M 5.7142857,34.006555 36.071429,59.72084 68.214286,20.077983 98.571429,55.435126 129.64286,43.649412 160.35714,22.577983 187.5,36.506555"
       id="path3890"
       inkscape:connector-curvature="0"
       transform="translate(94.01018,413.83849)" />
  </g>
</svg>
